<svg xmlns="http://www.w3.org/2000/svg" viewBox="0 0 64 64" id="egg-timer"><path d="M17.3 30.7v2.5l-2.1 1.3c-7.4 4.4-12 12.4-12.4 20.9H1.5c-.8 0-1.5.7-1.5 1.5v4c0 .8.7 1.5 1.5 1.5h39.9c.3 0 .6-.1.8-.2.9.1 1.8.2 2.8.2 10.5 0 19.1-8.6 19.1-19.1 0-10.5-8.6-19.1-19.1-19.1-7.4 0-13.8 4.2-17 10.4-.1-.1-.2-.1-.3-.2l-2.1-1.3v-2.5l2.1-1.2C35 25.1 39.7 17.1 40 8.6h1.4c.8 0 1.5-.7 1.5-1.5V3c0-.8-.7-1.5-1.5-1.5H1.5C.7 1.5 0 2.2 0 3v4c0 .8.7 1.5 1.5 1.5h1.4c.3 8.5 5 16.5 12.4 20.9l2 1.3zM1.9 6.6V3.5h39v3.2h-39zm26.2 45.8H12.8c2.8-1.5 5.6-2.2 8.6-2.2 2.1 0 4.1.4 6.1 1.1.2.4.4.7.6 1.1zm-.3-9c0-9.5 7.7-17.1 17.1-17.1C54.3 26.3 62 34 62 43.4c0 9.4-7.7 17.1-17.1 17.1-9.4 0-17.1-7.7-17.1-17.1zm4.2 14c1.4 1.3 2.9 2.3 4.6 3.1H1.9v-3.1H32zM19.2 33.8v-3.6c0-.3-.2-.6-.5-.8l-2.6-1.5C9.4 23.7 5.1 16.4 4.8 8.6h33.3c-.3 7.9-4.6 15.2-11.4 19.3l-2.6 1.5c-.3.2-.5.5-.5.8v3.6c0 .3.2.7.5.8l2.6 1.5c.2.1.3.2.5.3-.8 2.1-1.3 4.5-1.3 6.9 0 1.9.3 3.8.8 5.5-1.7-.5-3.5-.7-5.2-.7-4.4 0-8.6 1.5-12.5 4.4-.3.3-.5.7-.3 1.1.1.4.5.7.9.7h19.8c.3.4.5.8.8 1.1H4.8c.3-7.9 4.6-15.2 11.4-19.3l2.6-1.5c.3-.1.4-.5.4-.8z"></path><path fill="#5e7891" d="M27.8 43.4c0 9.4 7.7 17.1 17.1 17.1 9.4 0 17.1-7.7 17.1-17.1 0-9.5-7.7-17.1-17.1-17.1-9.4 0-17.1 7.6-17.1 17.1zm1.3 0c0-8.7 7.1-15.9 15.9-15.9 8.7 0 15.9 7.1 15.9 15.9 0 8.7-7.1 15.9-15.9 15.9s-15.9-7.2-15.9-15.9z"></path><path fill="#e8625c" d="M1.9 3.5h39v3.2h-39zM1.9 57.4v3.1h34.6c-1.7-.8-3.2-1.9-4.6-3.1h-30z"></path><path fill="#93c9e3" d="M4.8 55.5h25.3c-.3-.4-.6-.7-.8-1.1H9.5c-.4 0-.8-.3-.9-.7-.1-.4 0-.8.3-1.1 3.9-2.9 8.1-4.4 12.5-4.4 1.8 0 3.5.3 5.2.7-.5-1.8-.8-3.6-.8-5.5 0-2.2.4-4.3 1.1-6.2.1-.2.2-.5.3-.7-.2-.1-.3-.2-.5-.3l-2.6-1.5c-.3-.2-.5-.5-.5-.8v-3.6c0-.3.1-.5.3-.7 0-.1.1-.1.2-.2l2.6-1.5c2.1-1.3 4-2.9 5.6-4.7.6-.7 1.2-1.5 1.8-2.3 2.4-3.6 3.9-7.8 4.1-12.3H4.8c.3 7.9 4.6 15.2 11.4 19.3l2.6 1.5c.3.2.5.5.5.8v3.6c0 .3-.2.7-.5.8l-2.6 1.5C9.4 40.3 5.1 47.6 4.8 55.5zm27.1-35.2c-1.3 2.3-3.6 4.8-7.5 6.1-1 .3-1.9.4-2.9.4s-2-.1-2.9-.4c-4.9-1.6-7.3-5.1-8.3-7.8-.1-.3-.1-.6.1-.9.2-.3.5-.4.8-.4h20.7c.3 0 .6.2.8.4.1.2.2.5.2.7v.1c-.4.6-.7 1.2-1 1.8zm-11.4 25c0-.5.4-1 1-1 .5 0 1 .4 1 1 0 .5-.4 1-1 1s-1-.5-1-1zm0-4.1c0-.5.4-1 1-1 .5 0 1 .4 1 1 0 .5-.4 1-1 1s-1-.4-1-1zm0-4.1c0-.5.4-1 1-1 .5 0 1 .4 1 1 0 .5-.4 1-1 1s-1-.4-1-1zm0-4c0-.5.4-1 1-1 .5 0 1 .4 1 1 0 .5-.4 1-1 1-.6-.1-1-.5-1-1zm0-4.1c0-.5.4-1 1-1 .5 0 1 .4 1 1 0 .5-.4 1-1 1s-1-.5-1-1z"></path><path fill="#f2776b" d="M1.9 3.5h3.7v3.2H1.9zM1.9 57.4h3.7v3.1H1.9z"></path><path fill="#a8d7f3" d="M4.8 55.5H8c.3-7.9 3.8-15.2 9.2-19.3l2.1-1.5c.2-.2.4-.5.4-.8v-3.6c0-.3-.1-.6-.4-.8L17.2 28c-2.6-1.9-4.7-4.5-6.2-7.5-.1-.2-.2-.5-.3-.7-.2-.4-.3-.7-.5-1-1.3-3.1-2.1-6.5-2.2-10H4.8c.3 7.9 4.6 15.2 11.4 19.3l2.6 1.5c.3.2.5.5.5.8V34c0 .3-.2.7-.5.8l-2.6 1.5c-6.8 4-11.1 11.3-11.4 19.2z"></path><path fill="#da5b57" d="M37.2 3.5h3.7v3.2h-3.7z"></path><path fill="#88bad0" d="M23.2 30.2v3.6c0 .3.1.7.4.8l2.1 1.5c.4.3.8.6 1.2 1 .1-.2.2-.5.3-.7-.2-.1-.3-.2-.5-.3l-2.6-1.5c-.3-.2-.5-.5-.5-.8v-3.6c0-.3.1-.5.3-.7l.2-.2 2.6-1.5c2.1-1.3 4-2.9 5.6-4.7.6-.7 1.2-1.5 1.8-2.3 2.4-3.6 3.9-7.8 4.1-12.3H35c-.1 3.5-.9 6.8-2.1 9.8v.1c-.1.3-.3.7-.5 1-.1.2-.2.4-.3.7-1.6 3-3.7 5.6-6.2 7.5l-2.1 1.5c-.4.4-.6.8-.6 1.1z"></path><path fill="#f1a444" d="M12.8 52.4h15.3c-.2-.4-.4-.7-.5-1.1-2-.7-4-1.1-6.1-1.1-3-.1-5.9.7-8.7 2.2z"></path><path d="M10.2 18.6c1.1 2.7 3.4 6.2 8.3 7.8 1 .3 1.9.4 2.9.4s2-.1 2.9-.4c4.9-1.6 7.3-5.1 8.3-7.8.1-.3.1-.6-.1-.9-.2-.3-.5-.4-.8-.4H11.1c-.3 0-.6.2-.8.4-.2.2-.2.6-.1.9zm2.4.6h17.7c-1.1 2-3 4.2-6.5 5.3-1.5.5-3.2.5-4.7 0-3.5-1.1-5.4-3.3-6.5-5.3z"></path><path fill="#f1a444" d="M12.6 19.2c1.1 2 3 4.2 6.5 5.3 1.5.5 3.2.5 4.7 0 3.4-1.1 5.4-3.3 6.5-5.3H12.6zm8.8 30.9c1.2 0 4.3.9 6.4 1.7l-.3-.6c-1.9-.7-4-1.1-6.1-1.1z"></path><path fill="#fbb553" d="M12.8 52.4h2.4c2-1.5 4.1-2.2 6.2-2.2-2.9-.1-5.8.7-8.6 2.2z"></path><path fill="#f1a444" d="M21.4 24.9c.8 0 1.6-.1 2.4-.4 3.4-1.1 5.4-3.3 6.5-5.3h-2.5c-.8 2-2.2 4.2-4.7 5.3-.5.3-1.1.4-1.7.4z"></path><path fill="#fbb553" d="M12.6 19.2c1.1 2 3 4.2 6.5 5.3.8.2 1.6.4 2.4.4-.6 0-1.2-.1-1.7-.4-2.5-1.1-3.9-3.3-4.7-5.3h-2.5z"></path><path d="M20.5 29c0 .5.4 1 1 1 .5 0 1-.4 1-1 0-.5-.4-1-1-1s-1 .5-1 1zm0 4.1c0 .5.4 1 1 1 .5 0 1-.4 1-1 0-.5-.4-1-1-1s-1 .4-1 1zm0 4c0 .5.4 1 1 1 .5 0 1-.4 1-1 0-.5-.4-1-1-1-.6.1-1 .5-1 1zm0 4.1c0 .5.4 1 1 1 .5 0 1-.4 1-1 0-.5-.4-1-1-1s-1 .5-1 1zm0 4.1c0 .5.4 1 1 1 .5 0 1-.4 1-1 0-.5-.4-1-1-1s-1 .4-1 1zm8.6-1.9c0 8.7 7.1 15.9 15.9 15.9 8.7 0 15.9-7.1 15.9-15.9 0-8.7-7.1-15.9-15.9-15.9s-15.9 7.2-15.9 15.9zm1.9 0c0-7.7 6.2-13.9 13.9-13.9s13.9 6.2 13.9 13.9-6.2 13.9-13.9 13.9S31 51.1 31 43.4z"></path><path fill="#d5d6d5" d="M31 43.4c0 7.7 6.2 13.9 13.9 13.9s13.9-6.2 13.9-13.9-6.2-13.9-13.9-13.9S31 35.7 31 43.4zm24 0c0-.5.4-1 1-1h1.1c.5 0 1 .4 1 1 0 .5-.4 1-1 1H56c-.6 0-1-.5-1-1zm-9.1-11.1c0 .5-.4 1-1 1-.5 0-1-.4-1-1v-1.1c0-.5.4-1 1-1 .5 0 1 .4 1 1v1.1zm6.2 18.2c.4-.4 1-.4 1.4 0l.8.8c.4.4.4 1 0 1.4-.3.2-.5.3-.8.3-.2 0-.5-.1-.7-.3l-.8-.8c-.3-.4-.3-1 .1-1.4zm0-15.6.8-.8c.4-.4 1-.4 1.4 0 .4.4.4 1 0 1.4l-.8.8c-.2.2-.4.3-.7.3-.2 0-.5-.1-.7-.3-.4-.4-.4-1 0-1.4zM44 54.5c0-.5.4-1 1-1 .5 0 1 .4 1 1v1.1c0 .5-.4 1-1 1-.5 0-1-.4-1-1v-1.1zm-5-2.2 4-7.2-.2-.2c-.8-1.2-.5-2.8.7-3.6.6-.4 1.3-.5 2-.4.7.1 1.3.5 1.6 1.1.4.6.5 1.3.4 2-.1.7-.5 1.3-1.1 1.7-.4.3-.9.4-1.4.4h-.3l-4 7.2c-.2.3-.5.5-.9.5-.2 0-.3 0-.5-.1-.4-.4-.6-.9-.3-1.4zm-3.4-1 .8-.8c.4-.4 1-.4 1.4 0 .4.4.4 1 0 1.4l-.8.8c-.2.2-.4.3-.7.3-.3 0-.5-.1-.7-.3-.4-.4-.4-1 0-1.4zm0-17.2c.4-.4 1-.4 1.4 0l.8.8c.4.4.4 1 0 1.4-.2.2-.4.3-.7.3-.3 0-.5-.1-.7-.3l-.8-.8c-.4-.4-.4-1 0-1.4zm-3.8 9.3c0-.5.4-1 1-1h1.1c.5 0 1 .4 1 1 0 .5-.4 1-1 1h-1.1c-.6 0-1-.5-1-1z"></path><path fill="#7187a0" d="M46.8 60.4c8.6-1 15.2-8.2 15.2-17s-6.7-16.1-15.2-17c5.4.7 10 4.6 12.2 9.8 1.1 2.2 1.7 4.6 1.7 7.2 0 2.6-.6 5-1.7 7.2-2.2 5.2-6.7 9.1-12.2 9.8z"></path><path fill="#e8932f" d="M44.1 60.5c-.4 0-.7-.1-1.1-.1.4.1.8.1 1.1.1zm0-34.2c-.4 0-.7.1-1.1.1.4-.1.7-.1 1.1-.1z"></path><path fill="#506c87" d="M43 60.4c-5.4-.7-10-4.5-12.2-9.8-1.1-2.2-1.7-4.6-1.7-7.2 0-2.6.6-5.1 1.8-7.2 2.2-5.2 6.8-9 12.2-9.8-8.6.9-15.2 8.2-15.2 17-.1 8.8 6.6 16.1 15.1 17z"></path><path fill="#bfbebc" d="M45.5 57.3c7.4-.3 13.3-6.4 13.3-13.9s-5.9-13.6-13.3-13.9c3.2.2 6 1.8 8 4.3.2 0 .5.1.6.3.3.3.3.6.2 1 1.3 2.1 2.2 4.6 2.4 7.4h.3c.5 0 1 .4 1 1 0 .5-.4 1-1 1h-.3c-.2 2.8-1 5.3-2.4 7.4.1.3 0 .7-.2 1-.1 0-.3.1-.5.1-2.1 2.5-4.9 4.1-8.1 4.3z"></path><path fill="#edeced" d="M31 43.4c0 7.5 5.9 13.6 13.3 13.9-3.2-.2-6-1.8-8-4.3-.2 0-.5-.1-.6-.3-.3-.3-.3-.6-.2-1-1.3-2.1-2.2-4.6-2.4-7.4h-.3c-.5 0-1-.4-1-1 0-.5.4-1 1-1h.2c.2-2.8 1-5.3 2.4-7.4-.1-.3 0-.7.2-1 .2-.2.4-.3.6-.3 2-2.5 4.9-4.1 8-4.3-7.3.5-13.2 6.6-13.2 14.1z"></path><path d="M44 31.2v1.1c0 .5.4 1 1 1 .5 0 1-.4 1-1v-1.1c0-.5-.4-1-1-1s-1 .5-1 1zm8.1 5.1c.2.2.4.3.7.3.3 0 .5-.1.7-.3l.8-.8c.4-.4.4-1 0-1.4-.4-.4-1-.4-1.4 0l-.8.8c-.4.4-.4 1 0 1.4zm2.9 7.1c0 .5.4 1 1 1h1.1c.5 0 1-.4 1-1 0-.5-.4-1-1-1H56c-.6 0-1 .5-1 1zm-2.9 8.5.8.8c.2.2.4.3.7.3.3 0 .5-.1.7-.3.4-.4.4-1 0-1.4l-.8-.8c-.4-.4-1-.4-1.4 0-.4.4-.4 1 0 1.4zM44 54.5v1.1c0 .5.4 1 1 1 .5 0 1-.4 1-1v-1.1c0-.5-.4-1-1-1s-1 .4-1 1zm-8.4-1.8c.2.2.4.3.7.3.2 0 .5-.1.7-.3l.8-.8c.4-.4.4-1 0-1.4-.4-.4-1-.4-1.4 0l-.8.8c-.4.4-.4 1 0 1.4zm-3.8-9.3c0 .5.4 1 1 1h1.1c.5 0 1-.4 1-1 0-.5-.4-1-1-1h-1.1c-.6 0-1 .5-1 1zm3.8-7.9.8.8c.2.2.4.3.7.3.2 0 .5-.1.7-.3.4-.4.4-1 0-1.4l-.8-.8c-.4-.4-1-.4-1.4 0-.4.4-.4 1 0 1.4zm3.7 18.1c.2.1.3.1.5.1.3 0 .7-.2.9-.5l4-7.2h.3c.5 0 1-.1 1.4-.4.6-.4 1-1 1.1-1.7.1-.7 0-1.4-.4-2-.4-.6-1-1-1.6-1.1-.7-.1-1.4 0-2 .4-1.2.8-1.5 2.4-.7 3.6 0 .1.1.1.2.2l-4 7.2c-.3.6-.1 1.1.3 1.4zm5.2-10.8c.1-.1.2-.1.4-.1h.1c.2 0 .3.1.4.3.1.2.1.3.1.5s-.1.3-.3.4c-.3.2-.7.1-.9-.2-.1-.2-.1-.7.2-.9z"></path><path fill="#5e7891" d="M44.4 43.8c.2.3.6.4.9.2.1-.1.3-.3.3-.4 0-.2 0-.4-.1-.5-.1-.1-.3-.3-.4-.3H45c-.1 0-.3 0-.4.1-.4.1-.4.6-.2.9z"></path></svg>