<svg xmlns="http://www.w3.org/2000/svg" enable-background="new 0 0 128 128" viewBox="0 0 128 128" id="group-communication"><g opacity=".2"><circle cx="63.9" cy="64" r="41" fill="#9CE3FF"></circle><path fill="#046D8B" d="M63.9,106c-23.2,0-42-18.8-42-42s18.8-42,42-42s42,18.8,42,42S87.1,106,63.9,106z M63.9,24c-22.1,0-40,17.9-40,40s17.9,40,40,40s40-17.9,40-40S86,24,63.9,24z"></path><rect width="2" height="82" x="62.9" y="23" fill="#046D8B"></rect><rect width="82" height="2" x="22.9" y="63" fill="#046D8B"></rect><path fill="#046D8B" d="M63.9,106c-12.1,0-22-18.8-22-42s9.9-42,22-42c12.1,0,22,18.8,22,42S76.1,106,63.9,106z M63.9,24c-11,0-20,17.9-20,40s9,40,20,40s20-17.9,20-40S75,24,63.9,24z"></path><path fill="#046D8B" d="M63.9,48c-12.6,0-24.4-3.3-32.4-9l1.2-1.6c7.7,5.5,19,8.7,31.2,8.7c12.3,0,23.7-3.2,31.4-8.8l1.2,1.6C88.5,44.7,76.7,48,63.9,48z"></path><g><path fill="#046D8B" d="M32.7,90.7l-1.2-1.6c8-5.8,19.8-9,32.4-9c12.5,0,24.2,3.3,32.2,8.9L95,90.6C87.3,85.1,76,82,63.9,82C51.8,82,40.4,85.2,32.7,90.7z"></path></g></g><circle cx="26.9" cy="36" r="9" fill="#FCE19A"></circle><path fill="#1A2D54" d="M26.9,46c-5.5,0-10-4.5-10-10s4.5-10,10-10s10,4.5,10,10S32.5,46,26.9,46z M26.9,28c-4.4,0-8,3.6-8,8s3.6,8,8,8s8-3.6,8-8S31.4,28,26.9,28z"></path><circle cx="26.9" cy="36" r="8" fill="#FCE19A"></circle><path fill="#D2BB80" d="M22.9,36c0-3.7,2.6-6.8,6-7.7c-0.6-0.2-1.3-0.3-2-0.3c-4.4,0-8,3.6-8,8s3.6,8,8,8c0.7,0,1.4-0.1,2-0.3C25.5,42.9,22.9,39.7,22.9,36z"></path><path fill="#F8B4AB" d="M26.9,48c-7.7,0-14,6.3-14,14h28C40.9,54.3,34.7,48,26.9,48z"></path><path fill="#1A2D54" d="M40.9,63h-28c-0.6,0-1-0.4-1-1c0-8.3,6.7-15,15-15s15,6.7,15,15C41.9,62.6,41.5,63,40.9,63z M14,61h25.9c-0.5-6.7-6.1-12-13-12S14.5,54.3,14,61z"></path><g><path fill="#F8B4AB" d="M14,61c0.5-6.7,6.1-12,13-12s12.4,5.3,13,12H14z"></path></g><g><path fill="#CF968F" d="M28.9,49.2c-0.7-0.1-1.3-0.2-2-0.2c-6.8,0-12.4,5.3-13,12h4C18.4,55,23.1,50.1,28.9,49.2z"></path></g><g><path fill="#C5F9F3" d="M85.9,36l-8.2-1.9c-3.1-4.3-8.1-7.1-13.8-7.1c-5.7,0-10.7,2.8-13.8,7.1L42.9,36l4.8,3c-0.5,1.6-0.8,3.3-0.8,5c0,6.9,4.1,12.8,10,15.5l0,6.5l7-5c9.4,0,17-7.6,17-17c0-1.4-0.2-2.8-0.5-4.1L85.9,36z"></path><path fill="#1A2D54" d="M56.9,67c-0.2,0-0.3,0-0.5-0.1c-0.3-0.2-0.5-0.5-0.5-0.9l0-5.9c-6.1-3-10-9.3-10-16.1c0-1.6,0.2-3.1,0.6-4.6l-4.1-2.6c-0.3-0.2-0.5-0.6-0.5-1s0.4-0.7,0.7-0.8l6.8-1.8c3.4-4.5,8.8-7.3,14.4-7.3c5.6,0,11,2.7,14.4,7.2l7.8,1.8c0.4,0.1,0.7,0.4,0.8,0.8c0.1,0.4-0.1,0.8-0.4,1l-5,3.5c0.3,1.2,0.4,2.5,0.4,3.7c0,9.8-7.9,17.8-17.7,18l-6.7,4.8C57.4,67,57.2,67,56.9,67z M45.4,36.4l2.8,1.7c0.4,0.2,0.6,0.7,0.4,1.1c-0.5,1.5-0.7,3.1-0.7,4.7c0,6.3,3.7,12,9.4,14.6c0.4,0.2,0.6,0.5,0.6,0.9l0,4.6l5.4-3.9c0.2-0.1,0.4-0.2,0.6-0.2c8.8,0,16-7.2,16-16c0-1.2-0.2-2.5-0.5-3.8c-0.1-0.4,0.1-0.8,0.4-1.1l3.7-2.6l-6-1.4c-0.2-0.1-0.4-0.2-0.6-0.4c-3-4.2-7.9-6.7-13-6.7c-5.1,0-10,2.5-13,6.7c-0.1,0.2-0.3,0.3-0.6,0.4L45.4,36.4z"></path><path fill="#C5F9F3" d="M58,58.9l-0.6-0.3c-5.7-2.6-9.4-8.3-9.4-14.6c0-1.6,0.2-3.2,0.7-4.7l0.2-0.7l-3.4-2.2l5.3-1.4l0.2-0.3c3-4.2,7.9-6.7,13-6.7c5.1,0,10,2.5,13,6.7l0.2,0.3l6.4,1.5l-4.3,3l0.2,0.7c0.3,1.3,0.5,2.6,0.5,3.8c0,8.8-7.2,16-16,16h-0.3L58,64.1L58,58.9z"></path><path fill="#A4CFCA" d="M62,61.2l0-2.3l-0.6-0.3c-5.7-2.6-9.4-8.3-9.4-14.6c0-1.6,0.2-3.2,0.7-4.7l0.2-0.7l-3.4-2.2l5.3-1.4l0.2-0.3c2.6-3.7,6.6-6,11-6.6c-0.7-0.1-1.3-0.1-2-0.1c-5.1,0-10,2.5-13,6.7L50.7,35l-5.3,1.4l2.9,1.8l0.3,0.4l0.1,0.4l-0.1,0.3c-0.5,1.5-0.7,3.1-0.7,4.7c0,6.3,3.7,12,9.4,14.6l0.3,0.2l0.2,0.4l0.1,0.2l0,4.7L62,61.2z"></path><path fill="#1A2D54" d="M61.9 37h-6c-.6 0-1-.4-1-1s.4-1 1-1h6c.6 0 1 .4 1 1S62.5 37 61.9 37zM65.9 41h-10c-.6 0-1-.4-1-1s.4-1 1-1h10c.6 0 1 .4 1 1S66.5 41 65.9 41zM69.9 45h-14c-.6 0-1-.4-1-1s.4-1 1-1h14c.6 0 1 .4 1 1S70.5 45 69.9 45zM73.9 49h-18c-.6 0-1-.4-1-1s.4-1 1-1h18c.6 0 1 .4 1 1S74.5 49 73.9 49z"></path><g><path fill="#1A2D54" d="M69.9,53h-14c-0.6,0-1-0.4-1-1s0.4-1,1-1h14c0.6,0,1,0.4,1,1S70.5,53,69.9,53z"></path></g></g><g><circle cx="100.9" cy="36" r="9" fill="#FCE19A"></circle><path fill="#1A2D54" d="M100.9,46c-5.5,0-10-4.5-10-10s4.5-10,10-10s10,4.5,10,10S106.5,46,100.9,46z M100.9,28c-4.4,0-8,3.6-8,8s3.6,8,8,8s8-3.6,8-8S105.4,28,100.9,28z"></path><path fill="#F8B4AB" d="M100.9,48c-7.7,0-14,6.3-14,14h28C114.9,54.3,108.7,48,100.9,48z"></path><path fill="#1A2D54" d="M114.9,63h-28c-0.6,0-1-0.4-1-1c0-8.3,6.7-15,15-15s15,6.7,15,15C115.9,62.6,115.5,63,114.9,63z M88,61h25.9c-0.5-6.7-6.1-12-13-12S88.5,54.3,88,61z"></path><g><path fill="#D2BB80" d="M96.9,36c0-3.7,2.6-6.8,6-7.7c-0.6-0.2-1.3-0.3-2-0.3c-4.4,0-8,3.6-8,8s3.6,8,8,8c0.7,0,1.4-0.1,2-0.3C99.5,42.9,96.9,39.7,96.9,36z"></path></g><g><path fill="#CF968F" d="M102.9,49.2c-0.7-0.1-1.3-0.2-2-0.2c-6.8,0-12.4,5.3-13,12h4C92.4,55,97.1,50.1,102.9,49.2z"></path></g></g><g><circle cx="63.9" cy="79" r="9" fill="#FCE19A"></circle><path fill="#1A2D54" d="M63.9,89c-5.5,0-10-4.5-10-10s4.5-10,10-10s10,4.5,10,10S69.5,89,63.9,89z M63.9,71c-4.4,0-8,3.6-8,8s3.6,8,8,8c4.4,0,8-3.6,8-8S68.4,71,63.9,71z"></path><path fill="#F8B4AB" d="M63.9,91c-7.7,0-14,6.3-14,14h28C77.9,97.3,71.7,91,63.9,91z"></path><path fill="#1A2D54" d="M77.9,106h-28c-0.6,0-1-0.4-1-1c0-8.3,6.7-15,15-15s15,6.7,15,15C78.9,105.6,78.5,106,77.9,106z M51,104h25.9c-0.5-6.7-6.1-12-13-12S51.5,97.3,51,104z"></path><g><path fill="#D2BB80" d="M59.9,79c0-3.7,2.6-6.8,6-7.7c-0.6-0.2-1.3-0.3-2-0.3c-4.4,0-8,3.6-8,8s3.6,8,8,8c0.7,0,1.4-0.1,2-0.3C62.5,85.9,59.9,82.7,59.9,79z"></path></g><g><path fill="#CF968F" d="M65.9,92.2c-0.7-0.1-1.3-0.2-2-0.2c-6.8,0-12.4,5.3-13,12h4C55.4,98,60.1,93.1,65.9,92.2z"></path></g></g></svg>