<svg xmlns="http://www.w3.org/2000/svg" width="24" height="24" fill="none" viewBox="0 0 24 24" id="medium"><path fill="url(#paint0_linear_1233_4386)" fill-rule="evenodd" d="M6 9C4.34315 9 3 10.3431 3 12C3 13.6569 4.34315 15 6 15C7.65685 15 9 13.6569 9 12C9 10.3431 7.65685 9 6 9ZM1 12C1 9.23858 3.23858 7 6 7C8.76142 7 11 9.23858 11 12C11 14.7614 8.76142 17 6 17C3.23858 17 1 14.7614 1 12ZM18 12C18 10.738 17.6823 9.548 17.1158 8.64157C16.5581 7.74924 15.6596 7 14.5 7C13.3404 7 12.4419 7.74924 11.8842 8.64157C11.3177 9.548 11 10.738 11 12C11 13.262 11.3177 14.452 11.8842 15.3584C12.4419 16.2508 13.3404 17 14.5 17C15.6596 17 16.5581 16.2508 17.1158 15.3584C17.6823 14.452 18 13.262 18 12ZM18 12C18 10.8073 18.1796 9.6829 18.503 8.82045C18.6633 8.39292 18.8784 7.97747 19.1679 7.65093C19.4563 7.32556 19.9042 7 20.5 7C21.0958 7 21.5437 7.32556 21.8321 7.65093C22.1216 7.97747 22.3367 8.39292 22.497 8.82045C22.8204 9.6829 23 10.8073 23 12C23 13.1927 22.8204 14.3171 22.497 15.1796C22.3367 15.6071 22.1216 16.0225 21.8321 16.3491C21.5437 16.6744 21.0958 17 20.5 17C19.9042 17 19.4563 16.6744 19.1679 16.3491C18.8784 16.0225 18.6633 15.6071 18.503 15.1796C18.1796 14.3171 18 13.1927 18 12ZM13.5802 9.70157C13.2419 10.2429 13 11.0529 13 12C13 12.9471 13.2419 13.7571 13.5802 14.2984C13.9273 14.8538 14.2788 15 14.5 15C14.7212 15 15.0727 14.8538 15.4198 14.2984C15.7581 13.7571 16 12.9471 16 12C16 11.0529 15.7581 10.2429 15.4198 9.70157C15.0727 9.14619 14.7212 9 14.5 9C14.2788 9 13.9273 9.14619 13.5802 9.70157ZM20 12C20 10.9836 20.1562 10.108 20.3757 9.5227C20.4182 9.40925 20.4603 9.31426 20.5 9.23584C20.5397 9.31426 20.5818 9.40925 20.6243 9.5227C20.8438 10.108 21 10.9836 21 12C21 13.0164 20.8438 13.892 20.6243 14.4773C20.5818 14.5908 20.5397 14.6857 20.5 14.7642C20.4603 14.6857 20.4182 14.5908 20.3757 14.4773C20.1562 13.892 20 13.0164 20 12Z" clip-rule="evenodd"></path><defs><linearGradient id="paint0_linear_1233_4386" x1="12" x2="12" y1="7" y2="17" gradientUnits="userSpaceOnUse"><stop stop-color="#AB58FF"></stop><stop offset="1" stop-color="#6A3093"></stop></linearGradient></defs></svg>