<svg xmlns="http://www.w3.org/2000/svg" enable-background="new 0 0 512 512" viewBox="0 0 512 512" id="public-speaking-learn"><circle cx="255.9" cy="102.1" r="39.6" fill="#f2b895"></circle><path fill="#528bc9" d="M293.7,155.1h-75.5c-20.7,0-39.3,12.9-46.3,32.5l0,0c-5.4,14.7-8,30.3-8,45.8v2c0,6.9,5.5,12.5,12.5,12.5
				h159.4c6.9,0,12.5-5.5,12.5-12.5v-2c0-15.6-2.7-31.1-8-45.8l0,0C333.1,168,314.5,155.1,293.7,155.1z"></path><path fill="#fcb43b" d="M367.9,354.4H144.1c-4.7,0-8.6-3.7-8.9-8.4l-7.5-133.4c-0.3-5.1,3.8-9.4,8.9-9.4h238.7c5.1,0,9.2,4.3,8.9,9.4
			L376.8,346C376.5,350.7,372.6,354.4,367.9,354.4z"></path><path fill="#f7a42b" d="M387.1,248H124.9c-5.8,0-10.5-4.7-10.5-10.5v0c0-5.8,4.7-10.5,10.5-10.5h262.2c5.8,0,10.5,4.7,10.5,10.5v0
			C397.6,243.3,392.9,248,387.1,248z"></path><g><circle cx="346.5" cy="326.2" r="32" fill="#f2b895"></circle><path fill="#7cc250" d="M376.9,369h-61c-16.8,0-31.7,10.5-37.5,26.3l0,0c-4.3,11.9-6.5,24.5-6.5,37.1v1.6c0,5.6,4.5,10.1,10.1,10.1
					h128.8c5.6,0,10.1-4.5,10.1-10.1v-1.6c0-12.6-2.2-25.2-6.5-37.1l0,0C408.7,379.5,393.6,369,376.9,369z"></path><g><circle cx="165.5" cy="326.2" r="32" fill="#f2b895"></circle><path fill="#7cc250" d="M196,369h-61c-16.8,0-31.7,10.5-37.5,26.3l0,0c-4.3,11.9-6.5,24.5-6.5,37.1v1.6c0,5.6,4.5,10.1,10.1,10.1
					H230c5.6,0,10.1-4.5,10.1-10.1v-1.6c0-12.6-2.2-25.2-6.5-37.1l0,0C227.9,379.5,212.8,369,196,369z"></path></g><g><circle cx="256" cy="327.4" r="33.2" fill="#f2b895"></circle><path fill="#efefef" d="M287.6,371.8h-63.3c-17.4,0-32.9,10.9-38.9,27.3l0,0c-4.5,12.3-6.7,25.3-6.7,38.4v1.6
				c0,5.7,4.7,10.4,10.4,10.4h133.5c5.7,0,10.4-4.7,10.4-10.4v-1.6c0-13.1-2.3-26.1-6.7-38.4l0,0C320.5,382.7,305,371.8,287.6,371.8
				z"></path></g></g></svg>