<svg xmlns="http://www.w3.org/2000/svg" version="1.1" xmlns:xlink="http://www.w3.org/1999/xlink" xmlns:svgjs="http://svgjs.dev/svgjs" width="128" height="128" viewBox="0 0 128 128"><g transform="matrix(0.8046875,0,0,0.8046875,12.506335372881338,20.810526881321813)"><svg viewBox="0 0 59 50" data-background-color="#f2ebfb" preserveAspectRatio="xMidYMid meet" height="108" width="128" xmlns="http://www.w3.org/2000/svg" xmlns:xlink="http://www.w3.org/1999/xlink"><g id="tight-bounds" transform="matrix(1,0,0,1,-0.0036289999999894462,-0.1516875261110755)"><svg viewBox="0 0 59.00725799999999 50.30337505222216" height="50.30337505222216" width="59.00725799999999"><g><svg viewBox="0 0 59.00725799999999 50.30337505222216" height="50.30337505222216" width="59.00725799999999"><g><svg viewBox="0 0 59.00725799999999 50.30337505222216" height="50.30337505222216" width="59.00725799999999"><g><svg viewBox="0 0 59.00725799999999 50.30337505222216" height="50.30337505222216" width="59.00725799999999"><g id="textblocktransform"><svg viewBox="0 0 59.00725799999999 50.30337505222216" height="50.30337505222216" width="59.00725799999999" id="textblock"><g><svg viewBox="0 0 59.00725799999999 50.30337505222216" height="50.30337505222216" width="59.00725799999999"><g><svg viewBox="0 0 59.00725799999999 50.30337505222216" height="50.30337505222216" width="59.00725799999999"><g><svg xmlns="http://www.w3.org/2000/svg" xmlns:xlink="http://www.w3.org/1999/xlink" version="1.1" x="0" y="0" viewBox="0.0017770501910064906 8.628607433327964 99.99821620962562 85.24794991399193" enable-background="new 0 0 100 100" xml:space="preserve" height="50.30337505222216" width="59.00725799999999" class="icon-icon-0" data-fill-palette-color="accent" id="icon-0"><g fill="#c670ff" data-fill-palette-color="accent"><path fill="#c670ff" d="M88.406 9.826c3.995-1.437 9.531-2.341 11.257 2.671 1.521 4.347-3.097 13.503-4.511 17.66-1.938 5.695-3.944 11.463-6.667 16.838-2.541 4.665-8.027 4.479-12.773 3.834 2.238 1.056 5.379 1.964 7.119 3.842 2.373 2.263-1.899 1.188 1.818 3.312 1.365 0.78 2.907 1.943 4.011 3.085 2.324 2.406-0.032 2.374-1.229 4.278-1.549 2.552 2.425 3.946 3.267 5.604 1.132 3.145-4.121 0.956-4.365 3.622-0.559 4.73 1.752 6.606 5.486 9.151 2.233 1.522 7.175 3.635 8.05 6.423 0.985 3.141-3.854 4.646-5.528 2.234-2.456-3.536-7.743-14.905-13.245-7.511-0.861 1.157-1.3 5.096-3.264 1.903-1.431-2.325-3.086-2.307-4.41 0.324-2.994 5.946-8.565-8.76-10.064-10.645-1.98-2.583-2.893-5.544-4.551-8.305-1.943-2.974-2.575-9.244-5.916-11.024-0.971 4.744 3.327 24.369-1.833 26.809-2.893-1.827-2.096-8.4-2.039-11.207 0.101-5.025 1.247-11.17-0.388-16.033-2.478 1.698-3.665 6.183-4.872 8.771-1.694 3.635-3.572 7.646-6.013 10.827-2.411 3.044-6.237 17.258-10.616 9.601-0.878-1.536-2.771-0.845-3.48 0.317-2.681 4.415-2.679-0.459-4.55-2.011-7.668-6.36-9.583 7.883-14.02 9.514-2.271 0.875-5.139-1.879-3.418-4.031 2.329-2.594 5.668-4.22 8.47-6.232 2.296-1.649 5.208-4.143 4.722-7.322-0.512-3.342-4.737-2.195-4.695-4.473 0.124-1.964 3.446-2.416 3.736-4.739 0.287-2.301-3.189-2.147-2.615-4.233 1.46-3.896 6.357-3.456 6.755-7.272 0-2.218 5.522-3.517 6.943-4.455-3.611 0.403-8.206 1-11.465-1.046-2.831-1.653-4.338-7.709-5.46-10.522-1.986-4.982-3.79-10.047-5.417-15.158-1.206-3.787-4.724-10.775-0.9-14.024 6.759-5.819 22.126 6.041 26.964 10.475 7.569 6.937 13.369 15.723 17.027 25.293 1.937-0.968 1.914-8.272 4.958-7.518 2.033 0.712 2.999 4.693 4.114 6.253C60.693 29.383 72.778 15.569 88.406 9.826 90.44 9.095 85.898 10.748 88.406 9.826z" data-fill-palette-color="accent"></path></g></svg></g></svg></g></svg></g></svg></g></svg></g></svg></g></svg></g><defs></defs></svg><rect width="59.00725799999999" height="50.30337505222216" fill="none" stroke="none" visibility="hidden"></rect></g></svg></g></svg>